<svg xmlns="http://www.w3.org/2000/svg" viewBox="0 0 319.36 858.41"><defs><style>.cls-1{opacity:0.13;}.cls-10,.cls-11,.cls-12,.cls-13,.cls-14,.cls-15,.cls-16,.cls-17,.cls-18,.cls-19,.cls-2,.cls-20,.cls-3,.cls-4,.cls-5,.cls-6,.cls-7,.cls-8,.cls-9{fill:none;stroke:#3fa9f5;stroke-miterlimit:10;}.cls-2{stroke-width:2.81px;}.cls-3{stroke-width:2.31px;}.cls-4{stroke-width:2.31px;}.cls-5{stroke-width:2.5px;}.cls-6{stroke-width:2.26px;}.cls-7{stroke-width:2.39px;}.cls-8{stroke-width:1.75px;}.cls-9{stroke-width:2.11px;}.cls-10{stroke-width:1.96px;}.cls-11{stroke-width:2.85px;}.cls-12{stroke-width:2.02px;}.cls-13{stroke-width:2.01px;}.cls-14{stroke-width:2.5px;}.cls-15{stroke-width:2.32px;}.cls-16{stroke-width:2.43px;}.cls-17{stroke-width:2.95px;}.cls-18{stroke-width:2.34px;}.cls-19{stroke-width:2.01px;}.cls-20{stroke-width:2.49px;}</style></defs><g id="Layer_2" data-name="Layer 2"><g id="Layer_1-2" data-name="Layer 1"><g class="cls-1"><path class="cls-2" d="M108.52,40.43a6.33,6.33,0,0,1-8.92-.73l-7.73-9.11-9.11,7.73a6.33,6.33,0,0,1-8.19-9.65l9.12-7.73L76,11.83a6.33,6.33,0,0,1,9.65-8.19l7.72,9.12L102.45,5a6.32,6.32,0,0,1,10.39,5.34,6.23,6.23,0,0,1-2.21,4.3l-9.11,7.73,7.73,9.12A6.31,6.31,0,0,1,108.52,40.43Z"/><path class="cls-3" d="M113.38,124.55a5.19,5.19,0,0,1-7.35-.25l-6.71-7.17-7.17,6.7a5.2,5.2,0,0,1-7.11-7.6l7.18-6.7-6.71-7.18a5.2,5.2,0,0,1,7.6-7.1l6.71,7.17,7.18-6.7a5.19,5.19,0,0,1,7.35.24,5.22,5.22,0,0,1-.25,7.35L106.92,110l6.71,7.18A5.19,5.19,0,0,1,113.38,124.55Z"/><path class="cls-4" d="M197.13,145.52a5.17,5.17,0,0,1-1.51,3.67,5.1,5.1,0,0,1-3.66,1.53l-9.8,0,0,9.8a5.19,5.19,0,0,1-10.38,0l0-9.8-9.8,0a5.19,5.19,0,1,1,0-10.37l9.79,0,0-9.8a5.18,5.18,0,0,1,5.17-5.2,5.17,5.17,0,0,1,5.2,5.16l0,9.8,9.8,0A5.19,5.19,0,0,1,197.13,145.52Z"/><path class="cls-5" d="M184.36,227.82a5.64,5.64,0,0,1-7.15,3.49l-10-3.46-3.46,10a5.62,5.62,0,1,1-10.63-3.65l3.46-10.05-10-3.45a5.63,5.63,0,1,1,3.66-10.64l10,3.46,3.46-10.05a5.63,5.63,0,0,1,10.64,3.66l-3.46,10.05,10,3.45A5.62,5.62,0,0,1,184.36,227.82Z"/><path class="cls-6" d="M273.72,246.63a5.08,5.08,0,0,1-3.82,6.09l-9.35,2.16,2.15,9.35a5.08,5.08,0,0,1-9.91,2.28l-2.15-9.36-9.36,2.15a5.08,5.08,0,1,1-2.27-9.9l9.35-2.15-2.15-9.36A5.08,5.08,0,0,1,250,231.8a5.1,5.1,0,0,1,6.09,3.81l2.15,9.36,9.36-2.15A5.07,5.07,0,0,1,273.72,246.63Z"/><path class="cls-7" d="M241,351.42a5.38,5.38,0,0,1-7.46-1.47l-5.66-8.44-8.44,5.65a5.38,5.38,0,0,1-6-8.94l8.44-5.65-5.65-8.45a5.38,5.38,0,1,1,8.94-6l5.65,8.44,8.45-5.66a5.37,5.37,0,0,1,7.46,1.48,5.38,5.38,0,0,1-1.47,7.46l-8.45,5.66,5.66,8.44A5.36,5.36,0,0,1,241,351.42Z"/><path class="cls-8" d="M284.33,393.77a3.92,3.92,0,0,1-3.43,4.37l-7.38.89.89,7.38a3.93,3.93,0,1,1-7.81.94l-.89-7.37-7.38.89a3.94,3.94,0,0,1-.94-7.82l7.38-.89-.89-7.38a3.93,3.93,0,0,1,7.81-.94l.89,7.38,7.38-.89A3.93,3.93,0,0,1,284.33,393.77Z"/><path class="cls-9" d="M317.29,462.62a4.75,4.75,0,0,1-.8,6.67l-7.05,5.54,5.54,7.05a4.75,4.75,0,0,1-7.47,5.87L302,480.7l-7.06,5.54a4.75,4.75,0,0,1-5.86-7.47l7.05-5.54-5.54-7.06a4.73,4.73,0,0,1,.8-6.66,4.66,4.66,0,0,1,3.5-1,4.71,4.71,0,0,1,3.17,1.78l5.54,7.05,7.06-5.54A4.73,4.73,0,0,1,317.29,462.62Z"/><path class="cls-10" d="M291.72,528.6a4.41,4.41,0,0,1-4.14,4.64l-8.3.48.48,8.29a4.4,4.4,0,0,1-8.79.51l-.47-8.3-8.3.47a4.4,4.4,0,1,1-.5-8.78l8.29-.48-.47-8.29a4.4,4.4,0,1,1,8.78-.51l.48,8.3,8.3-.47A4.39,4.39,0,0,1,291.72,528.6Z"/><path class="cls-11" d="M291.75,600.75a6.42,6.42,0,0,1-4.32,8l-11.63,3.45,3.45,11.62a6.42,6.42,0,1,1-12.3,3.65l-3.45-11.62-11.62,3.45a6.42,6.42,0,1,1-3.65-12.3l11.62-3.45-3.45-11.62a6.41,6.41,0,0,1,9.21-7.46,6.31,6.31,0,0,1,3.09,3.81l3.45,11.62,11.62-3.45A6.41,6.41,0,0,1,291.75,600.75Z"/><path class="cls-12" d="M234.05,665.12a4.54,4.54,0,0,1-4.86,4.18l-8.54-.63-.64,8.54a4.54,4.54,0,0,1-9-.67l.64-8.55-8.54-.63a4.54,4.54,0,1,1,.67-9.05l8.54.63.64-8.54a4.54,4.54,0,0,1,9.05.67l-.64,8.55,8.54.63A4.53,4.53,0,0,1,234.05,665.12Z"/><path class="cls-13" d="M220.6,720.62a4.52,4.52,0,0,1-1.18,6.28l-7,4.83,4.82,7a4.52,4.52,0,0,1-7.46,5.11l-4.82-7-7,4.83a4.52,4.52,0,0,1-5.11-7.46l7-4.82-4.82-7a4.52,4.52,0,0,1,7.46-5.1l4.82,7,7-4.82A4.51,4.51,0,0,1,220.6,720.62Z"/><path class="cls-14" d="M144.86,749a5.64,5.64,0,0,1-4.44,6.6l-10.44,2,2,10.43A5.63,5.63,0,1,1,121,770.26l-2-10.43-10.44,2a5.63,5.63,0,1,1-2.16-11l10.44-2-2-10.44a5.63,5.63,0,0,1,4.45-6.61,5.65,5.65,0,0,1,6.61,4.45l2,10.43,10.44-2A5.62,5.62,0,0,1,144.86,749Z"/><path class="cls-15" d="M119.7,818.31a5.24,5.24,0,0,1,.13,7.39L113,832.79l7.09,6.85a5.22,5.22,0,1,1-7.26,7.51l-7.09-6.85-6.85,7.09a5.22,5.22,0,1,1-7.51-7.25l6.85-7.1-7.09-6.85a5.22,5.22,0,0,1,7.25-7.51l7.1,6.85,6.85-7.09A5.22,5.22,0,0,1,119.7,818.31Z"/><path class="cls-16" d="M38.09,812.73a5.48,5.48,0,0,1-1.72,7.55l-8.75,5.5,5.5,8.75a5.47,5.47,0,1,1-9.26,5.83l-5.51-8.75-8.75,5.5a5.47,5.47,0,0,1-5.82-9.27l8.75-5.5L7,813.59a5.47,5.47,0,0,1,5.84-8.24,5.39,5.39,0,0,1,3.42,2.42l5.5,8.75,8.75-5.5A5.46,5.46,0,0,1,38.09,812.73Z"/></g><g class="cls-1"><path class="cls-17" d="M261.12,59.63a6.66,6.66,0,0,1-4.71,8.12L244.31,71l3.22,12.1a6.63,6.63,0,1,1-12.82,3.41l-3.22-12.1L219.38,77.6A6.63,6.63,0,0,1,216,64.78l12.11-3.22-3.22-12.11a6.62,6.62,0,0,1,4.71-8.11,6.64,6.64,0,0,1,8.11,4.7l3.22,12.11L253,54.93A6.63,6.63,0,0,1,261.12,59.63Z"/><path class="cls-18" d="M194,76.53a5.28,5.28,0,0,1-6.47,3.67L178,77.55l-2.64,9.58a5.26,5.26,0,0,1-10.14-2.81l2.64-9.57-9.57-2.65A5.26,5.26,0,0,1,161.08,62l9.58,2.65L173.3,55a5.25,5.25,0,0,1,9.64-1.19,5.17,5.17,0,0,1,.5,4l-2.65,9.57,9.58,2.65A5.25,5.25,0,0,1,194,76.53Z"/></g><g class="cls-1"><path class="cls-19" d="M217.1,856.54a4.52,4.52,0,0,1-6.3-1l-5-6.89-6.9,5a4.51,4.51,0,0,1-5.31-7.3l6.9-5-5-6.89a4.51,4.51,0,1,1,7.3-5.31l5,6.89,6.89-5a4.52,4.52,0,0,1,6.31,1,4.53,4.53,0,0,1-1,6.31l-6.89,5,5,6.9A4.5,4.5,0,0,1,217.1,856.54Z"/><path class="cls-20" d="M186.63,767.92a5.61,5.61,0,0,1-.38,7.92L178.41,783l7.12,7.84a5.61,5.61,0,1,1-8.31,7.54l-7.12-7.84-7.84,7.12a5.61,5.61,0,1,1-7.54-8.31l7.84-7.12-7.12-7.84a5.61,5.61,0,0,1,8.31-7.54l7.12,7.84,7.84-7.12A5.6,5.6,0,0,1,186.63,767.92Z"/></g></g></g></svg>