<svg xmlns="http://www.w3.org/2000/svg" viewBox="0 0 600.35 859.94"><defs><style>.cls-1{opacity:0.13;}.cls-10,.cls-11,.cls-12,.cls-13,.cls-14,.cls-15,.cls-16,.cls-17,.cls-18,.cls-19,.cls-2,.cls-20,.cls-21,.cls-22,.cls-23,.cls-24,.cls-25,.cls-26,.cls-27,.cls-28,.cls-29,.cls-3,.cls-30,.cls-31,.cls-4,.cls-5,.cls-6,.cls-7,.cls-8,.cls-9{fill:none;stroke:#3fa9f5;stroke-miterlimit:10;}.cls-2{stroke-width:2.41px;}.cls-3{stroke-width:2.58px;}.cls-4{stroke-width:2.79px;}.cls-5{stroke-width:1.88px;}.cls-6{stroke-width:2.14px;}.cls-7{stroke-width:2.99px;}.cls-8{stroke-width:2.35px;}.cls-9{stroke-width:1.92px;}.cls-10{stroke-width:2.96px;}.cls-11{stroke-width:2.06px;}.cls-12{stroke-width:1.89px;}.cls-13{stroke-width:1.8px;}.cls-14{stroke-width:2.54px;}.cls-15{stroke-width:2.03px;}.cls-16{stroke-width:2.96px;}.cls-17{stroke-width:2.33px;}.cls-18{stroke-width:2.58px;}.cls-19{stroke-width:2.71px;}.cls-20{stroke-width:2.25px;}.cls-21{stroke-width:2.58px;}.cls-22{stroke-width:2.24px;}.cls-23{stroke-width:2.56px;}.cls-24{stroke-width:2.63px;}.cls-25{stroke-width:1.9px;}.cls-26{stroke-width:2.35px;}.cls-27{stroke-width:2.18px;}.cls-28{stroke-width:2.68px;}.cls-29{stroke-width:2.37px;}.cls-30{stroke-width:2.31px;}.cls-31{stroke-width:2.95px;}</style></defs><g id="Layer_2" data-name="Layer 2"><g id="Layer_1-2" data-name="Layer 1"><g class="cls-1"><path class="cls-2" d="M194.36,817.82a5.39,5.39,0,0,1-1.71,3.78,5.32,5.32,0,0,1-3.88,1.47l-10.23-.3L178.23,833a5.42,5.42,0,1,1-10.84-.32l.31-10.24-10.24-.3a5.42,5.42,0,0,1,.33-10.84l10.23.31.31-10.24a5.42,5.42,0,0,1,10.84.32l-.31,10.24,10.24.3A5.42,5.42,0,0,1,194.36,817.82Z"/><path class="cls-3" d="M165.05,751a5.81,5.81,0,0,1-8.18-.68l-7.08-8.35L141.43,749a5.8,5.8,0,1,1-7.5-8.85l8.35-7.09-7.08-8.36a5.8,5.8,0,1,1,8.84-7.5l7.09,8.36,8.36-7.09a5.8,5.8,0,0,1,7.5,8.85l-8.36,7.08,7.09,8.36A5.79,5.79,0,0,1,165.05,751Z"/><path class="cls-4" d="M135,692.39a6.3,6.3,0,0,1-8.82.89L117,685.79,109.52,695A6.27,6.27,0,1,1,99.81,687l7.49-9.16-9.17-7.49a6.27,6.27,0,0,1,7.93-9.71l9.17,7.49,7.49-9.17a6.26,6.26,0,0,1,8.82-.89,6.27,6.27,0,0,1,.89,8.82l-7.49,9.17,9.17,7.49A6.27,6.27,0,0,1,135,692.39Z"/><path class="cls-5" d="M106.46,608.67a4.13,4.13,0,0,1-.14,3.24,4.18,4.18,0,0,1-2.38,2.19l-7.52,2.75,2.75,7.51a4.24,4.24,0,0,1-8,2.91l-2.74-7.52L81,622.49a4.23,4.23,0,1,1-2.9-8l7.51-2.75-2.74-7.51a4.22,4.22,0,0,1,2.52-5.43,4.24,4.24,0,0,1,5.43,2.52l2.75,7.52,7.51-2.74A4.22,4.22,0,0,1,106.46,608.67Z"/><path class="cls-6" d="M80.83,563.18a4.82,4.82,0,0,1-6.46,2.17l-8.15-4.06-4.06,8.15a4.82,4.82,0,0,1-8.63-4.3L57.59,557l-8.15-4.06a4.82,4.82,0,0,1,4.3-8.63l8.15,4.06L66,540.21a4.81,4.81,0,0,1,6.46-2.16,4.82,4.82,0,0,1,2.17,6.46l-4.06,8.15,8.15,4.06A4.82,4.82,0,0,1,80.83,563.18Z"/><path class="cls-7" d="M105.77,482.73a6.73,6.73,0,0,1-5.81,7.52l-12.6,1.61L89,504.45a6.72,6.72,0,1,1-13.33,1.71L74,493.56l-12.59,1.62a6.72,6.72,0,0,1-1.71-13.34l12.59-1.61-1.61-12.59a6.72,6.72,0,0,1,13.34-1.71l1.61,12.59,12.59-1.61A6.72,6.72,0,0,1,105.77,482.73Z"/><path class="cls-8" d="M74.6,426.42A5.31,5.31,0,0,1,71,433l-9.62,2.72,2.72,9.61a5.29,5.29,0,0,1-10.18,2.88l-2.72-9.61-9.61,2.71a5.29,5.29,0,0,1-2.88-10.18l9.62-2.71-2.72-9.62a5.29,5.29,0,0,1,10.18-2.88l2.71,9.62,9.62-2.72A5.29,5.29,0,0,1,74.6,426.42Z"/><path class="cls-9" d="M56.15,357.68a4.33,4.33,0,0,1-2.71,5.49l-7.74,2.62,2.62,7.74a4.33,4.33,0,0,1-8.2,2.77l-2.62-7.74-7.74,2.62A4.33,4.33,0,0,1,27,363l7.74-2.62-2.62-7.74a4.33,4.33,0,0,1,2.72-5.48,4.32,4.32,0,0,1,5.48,2.71l2.62,7.74L50.67,355A4.33,4.33,0,0,1,56.15,357.68Z"/><path class="cls-10" d="M43,300.92a6.66,6.66,0,0,1-9.37.92l-9.72-8-8,9.72a6.66,6.66,0,0,1-10.29-8.45l8-9.72-9.72-8a6.65,6.65,0,1,1,8.44-10.29l9.72,8,8-9.72A6.65,6.65,0,0,1,41.83,269a6.58,6.58,0,0,1-1.47,4.87l-8,9.72,9.72,8A6.64,6.64,0,0,1,43,300.92Z"/><path class="cls-11" d="M45.81,233.17a4.65,4.65,0,0,1-6.4,1.49L32,230l-4.64,7.44a4.65,4.65,0,1,1-7.89-4.91l4.64-7.44-7.45-4.64a4.65,4.65,0,0,1,4.91-7.89L29,217.23l4.64-7.45a4.64,4.64,0,0,1,8.46,1.4,4.57,4.57,0,0,1-.58,3.51l-4.63,7.45,7.44,4.64A4.62,4.62,0,0,1,45.81,233.17Z"/><path class="cls-12" d="M121.76,167.29a4.25,4.25,0,0,1-.59,3.19,4.19,4.19,0,0,1-2.68,1.85L110.64,174l1.68,7.85a4.25,4.25,0,0,1-8.31,1.77l-1.68-7.84-7.85,1.67a4.25,4.25,0,1,1-1.77-8.31l7.85-1.67-1.67-7.85a4.23,4.23,0,0,1,3.26-5,4.18,4.18,0,0,1,3.2.59,4.23,4.23,0,0,1,1.85,2.68l1.67,7.84,7.85-1.67A4.24,4.24,0,0,1,121.76,167.29Z"/><path class="cls-13" d="M79.63,92.25a4.07,4.07,0,0,1-2.49,5.14L69.93,99.9l2.51,7.21a4,4,0,0,1-7.64,2.65l-2.51-7.21-7.2,2.51a4,4,0,1,1-2.66-7.63l7.21-2.51-2.51-7.21a4,4,0,0,1,2.49-5.14,4,4,0,0,1,5.15,2.49l2.5,7.2,7.21-2.5A4,4,0,0,1,79.63,92.25Z"/><path class="cls-14" d="M122.34,39.29a5.71,5.71,0,0,1-4.27,6.85l-10.51,2.44L110,59.09a5.71,5.71,0,1,1-11.12,2.58l-2.44-10.5L85.94,53.6a5.71,5.71,0,0,1-2.58-11.12L93.86,40l-2.44-10.5A5.7,5.7,0,0,1,100,23.41,5.58,5.58,0,0,1,102.54,27L105,37.46,115.49,35A5.71,5.71,0,0,1,122.34,39.29Z"/><path class="cls-15" d="M191.83,13.38A4.57,4.57,0,0,1,188.7,19l-8.31,2.39,2.39,8.31A4.57,4.57,0,0,1,174,32.27L171.6,24l-8.31,2.39a4.58,4.58,0,0,1-2.53-8.8l8.31-2.38-2.39-8.31a4.58,4.58,0,0,1,8.8-2.53l2.38,8.31,8.31-2.39A4.57,4.57,0,0,1,191.83,13.38Z"/></g><g class="cls-1"><path class="cls-16" d="M106.26,784a6.67,6.67,0,0,1-3.91,8.57L90.56,797,95,808.76a6.67,6.67,0,1,1-12.49,4.67l-4.41-11.79L66.3,806.05a6.66,6.66,0,1,1-4.67-12.48l11.78-4.41L69,777.38a6.67,6.67,0,0,1,12.49-4.67l4.41,11.78,11.78-4.41A6.66,6.66,0,0,1,106.26,784Z"/><path class="cls-17" d="M60,735.92a5.25,5.25,0,0,1-7.38-.63l-6.38-7.58-7.57,6.38a5.24,5.24,0,0,1-6.76-8l7.58-6.37-6.38-7.58a5.24,5.24,0,0,1,8-6.75l6.38,7.57,7.57-6.38a5.24,5.24,0,0,1,8.6,4.46,5.18,5.18,0,0,1-1.85,3.56L54.23,721l6.38,7.57A5.24,5.24,0,0,1,60,735.92Z"/><path class="cls-18" d="M53.48,666.74A5.82,5.82,0,0,1,46,670.12l-10.26-3.87L31.88,676.5A5.8,5.8,0,0,1,21,672.4l3.87-10.25-10.25-3.87a5.8,5.8,0,0,1,4.09-10.86L29,651.29,32.86,641a5.8,5.8,0,0,1,10.86,4.1l-3.87,10.26,10.25,3.87A5.78,5.78,0,0,1,53.48,666.74Z"/></g><g class="cls-1"><path class="cls-19" d="M489.89,830.78a6.1,6.1,0,0,1-4.84,7.12l-11.29,2.16,2.15,11.29a6.08,6.08,0,1,1-12,2.29l-2.16-11.3-11.3,2.16a6.09,6.09,0,1,1-2.28-12l11.29-2.15-2.16-11.3a6.08,6.08,0,0,1,4.84-7.12,6.1,6.1,0,0,1,7.12,4.84l2.16,11.29,11.29-2.16A6.09,6.09,0,0,1,489.89,830.78Z"/><path class="cls-20" d="M416.38,793.17a5,5,0,0,1-3.56,1.51,5,5,0,0,1-3.59-1.45l-6.82-6.7-6.7,6.82a5.06,5.06,0,0,1-7.22-7.09l6.7-6.82-6.82-6.7a5.06,5.06,0,1,1,7.09-7.22l6.82,6.7,6.7-6.82a5.06,5.06,0,1,1,7.22,7.09l-6.7,6.82,6.82,6.7A5,5,0,0,1,416.38,793.17Z"/><path class="cls-21" d="M350.23,804.61a5.8,5.8,0,0,1-.69,8.18l-8.37,7.07,7.07,8.37a5.8,5.8,0,0,1-8.86,7.49l-7.07-8.37-8.37,7.07a5.8,5.8,0,0,1-7.49-8.87l8.37-7.07-7.07-8.37a5.79,5.79,0,0,1,.69-8.17,5.8,5.8,0,0,1,8.17.68l7.07,8.37,8.38-7.07A5.79,5.79,0,0,1,350.23,804.61Z"/><path class="cls-22" d="M303.57,771.56a5.06,5.06,0,0,1-6.72,2.42l-8.63-4.07-4.07,8.63a5.05,5.05,0,1,1-9.14-4.3l4.07-8.63-8.63-4.06a5.05,5.05,0,0,1,4.3-9.14l8.63,4.06,4.06-8.63a5,5,0,0,1,6.72-2.42,5.06,5.06,0,0,1,2.42,6.72l-4.06,8.63,8.63,4.07A5,5,0,0,1,303.57,771.56Z"/><path class="cls-23" d="M229.2,749.31a5.76,5.76,0,0,1-4.26,7l-10.57,2.55,2.54,10.57a5.76,5.76,0,0,1-11.2,2.7l-2.54-10.58-10.58,2.55a5.76,5.76,0,1,1-2.69-11.2l10.57-2.55-2.54-10.58a5.76,5.76,0,0,1,11.2-2.69l2.54,10.58,10.58-2.55A5.76,5.76,0,0,1,229.2,749.31Z"/></g><g class="cls-1"><path class="cls-24" d="M475.6,762.65a5.93,5.93,0,0,1-8.1,2.06l-9.6-5.7-5.69,9.6a5.91,5.91,0,0,1-10.17-6l5.7-9.6-9.6-5.7a5.91,5.91,0,0,1,6-10.16l9.6,5.7,5.7-9.6a5.9,5.9,0,0,1,8.1-2.06,5.92,5.92,0,0,1,2.06,8.09l-5.7,9.6,9.6,5.7A5.9,5.9,0,0,1,475.6,762.65Z"/><path class="cls-25" d="M419.61,705.79a4.27,4.27,0,0,1-5.91-1.23l-4.43-6.75-6.75,4.43a4.27,4.27,0,0,1-4.68-7.15l6.74-4.42-4.42-6.75a4.27,4.27,0,1,1,7.14-4.69l4.43,6.75,6.75-4.43a4.26,4.26,0,0,1,5.91,1.23,4.28,4.28,0,0,1-1.23,5.92l-6.74,4.42,4.42,6.75A4.27,4.27,0,0,1,419.61,705.79Z"/><path class="cls-26" d="M365.94,730.28a5.3,5.3,0,0,1-6.23,4.13l-9.78-2-2,9.79a5.29,5.29,0,0,1-10.36-2.11l2-9.78-9.79-2A5.29,5.29,0,0,1,331.89,718l9.78,2,2-9.78a5.28,5.28,0,1,1,10.35,2.1l-2,9.78,9.78,2A5.28,5.28,0,0,1,365.94,730.28Z"/><path class="cls-27" d="M298.54,678.8a4.9,4.9,0,0,1-1.91,6.67L288.52,690l4.5,8.11a4.91,4.91,0,1,1-8.59,4.76l-4.49-8.11-8.11,4.5a4.91,4.91,0,0,1-4.76-8.59l8.11-4.49-4.5-8.11a4.91,4.91,0,1,1,8.59-4.76l4.49,8.11,8.11-4.5A4.9,4.9,0,0,1,298.54,678.8Z"/><path class="cls-28" d="M232.26,697a6,6,0,0,1-4.78,7.06l-11.18,2.17,2.16,11.18a6,6,0,1,1-11.84,2.29l-2.17-11.19-11.18,2.17A6,6,0,0,1,191,698.82l11.18-2.16L200,685.48a6,6,0,0,1,4.78-7.07,6,6,0,0,1,7.06,4.78L214,694.37l11.18-2.16A6,6,0,0,1,232.26,697Z"/><path class="cls-29" d="M186.17,628.39a5.33,5.33,0,0,1-1.18,7.44l-8.14,5.92,5.92,8.15a5.33,5.33,0,0,1-8.63,6.27L168.22,648l-8.14,5.92a5.33,5.33,0,1,1-6.27-8.62L162,639.4,156,631.26a5.33,5.33,0,0,1,8.63-6.27l5.92,8.14,8.14-5.92A5.33,5.33,0,0,1,186.17,628.39Z"/></g><g class="cls-1"><path class="cls-30" d="M598.4,785.65a5.21,5.21,0,0,1-1.63,7.16l-8.3,5.23,5.23,8.3a5.19,5.19,0,1,1-8.79,5.53l-5.23-8.3-8.3,5.23a5.2,5.2,0,0,1-5.54-8.79l8.31-5.23-5.23-8.3a5.19,5.19,0,0,1,8.79-5.53l5.22,8.3,8.3-5.23A5.2,5.2,0,0,1,598.4,785.65Z"/><path class="cls-31" d="M546.23,789.9a6.64,6.64,0,0,1-8,4.89L526,791.86,523.11,804a6.63,6.63,0,1,1-12.9-3.11l2.94-12.18L501,785.82a6.63,6.63,0,0,1,3.1-12.9l12.18,2.94,2.94-12.18a6.63,6.63,0,0,1,12.1-1.91,6.54,6.54,0,0,1,.79,5L529.15,779l12.18,2.94A6.62,6.62,0,0,1,546.23,789.9Z"/></g></g></g></svg>