<?xml version="1.0" encoding="utf-8"?>
<!-- Generator: Adobe Illustrator 25.0.1, SVG Export Plug-In . SVG Version: 6.00 Build 0)  -->
<svg version="1.1" id="Layer_1" xmlns="http://www.w3.org/2000/svg" xmlns:xlink="http://www.w3.org/1999/xlink" x="0px" y="0px"
	 viewBox="0 0 1246.56 276" style="enable-background:new 0 0 1246.56 276;" xml:space="preserve">
<style type="text/css">
	.st0{fill:#79BA42;}
	.st1{fill:#243746;}
	.st2{fill:none;stroke:#7B8989;stroke-width:20;stroke-linecap:round;stroke-miterlimit:10;}
</style>
<path class="st0" d="M50,174.41l-50,50V26C0,11.64,11.64,0,26,0h198.41l-52,52H50V174.41z"/>
<path class="st1" d="M241,13v202c0,14.36-11.64,26-26,26H13l52-52h122V67L241,13z"/>
<g>
	<g>
		<path class="st2" d="M420,57h-94c-13.12,0-23.75,10.63-23.75,23.75v91.88c0,13.12,10.63,23.75,23.75,23.75h95"/>
		<path class="st2" d="M462,112h77.75c11.74,0,21.25,9.51,21.25,21.25v45.25c0,8.91-7.22,16.13-16.13,16.13h-66.06
			c-9.08,0-16.44-7.36-16.44-16.44v-9.75c0-9.08,7.36-16.44,16.44-16.44H561"/>
		<path class="st2" d="M600,266V135.5c0-10.84,8.79-19.63,19.63-19.63h63.74c10.84,0,19.63,8.79,19.63,19.63v40.13
			c0,10.74-8.63,19.48-19.37,19.63L600,196.38"/>
		<path class="st2" d="M745,59v116.75c0,11.18,9.07,20.25,20.25,20.25h24.94"/>
		<line class="st2" x1="788" y1="114" x2="748" y2="114"/>
		<path class="st2" d="M820,112v63.38c0,11.39,9.23,20.63,20.63,20.63H919v-83"/>
		<path class="st2" d="M961,200l0.81-69.95c0.1-8.89,7.34-16.05,16.24-16.05h60.21c8.97,0,16.24,7.27,16.24,16.24v11.26"/>
		<line class="st2" x1="1090" y1="111.38" x2="1090" y2="199"/>
		<line class="st2" x1="1090" y1="77" x2="1090" y2="85"/>
		<path class="st2" d="M1236.56,114h-89.78c-8.16,0-14.78,6.62-14.78,14.78v9.81c0,8.16,6.62,14.78,14.78,14.78h72
			c8.16,0,14.78,6.62,14.78,14.78v13.06c0,8.16-6.62,14.78-14.78,14.78h-88.97"/>
	</g>
</g>
</svg>
