<?xml version="1.0" encoding="utf-8"?>
<!-- Generator: Adobe Illustrator 25.0.1, SVG Export Plug-In . SVG Version: 6.00 Build 0)  -->
<svg version="1.1" id="Layer_1" xmlns="http://www.w3.org/2000/svg" xmlns:xlink="http://www.w3.org/1999/xlink" x="0px" y="0px"
	 viewBox="0 0 252 216.8" style="enable-background:new 0 0 252 216.8;" xml:space="preserve">
<style type="text/css">
	.st0{fill:#FFFFFF;stroke:#FFFFFF;stroke-miterlimit:10;}
</style>
<path class="st0" d="M251.5,90.2v50.4c0,10.2-5.5,19.5-14.4,24.4l-81.3,44.5c-7.2,4-16.3,2.6-22-3.4L6,72.8
	c-3.5-3.7-5.5-8.6-5.5-13.6v-58l143,141.5L251.5,90.2z"/>
<path class="st0" d="M129.5,70.6l26.6,26.6l36.3-18.4c7.8-4,9.4-14.5,3-20.6l0,0c-8.3-7.9-20.6-9.7-30.9-4.7L129.5,70.6z"/>
<path class="st0" d="M76.5,21.8l23,23l31.3-15.9c6.8-3.4,8.1-12.6,2.6-17.8l0,0c-7.2-6.8-17.8-8.4-26.7-4.1L76.5,21.8z"/>
</svg>
