<svg id="Layer_1" data-name="Layer 1" xmlns="http://www.w3.org/2000/svg" xmlns:xlink="http://www.w3.org/1999/xlink" viewBox="0 0 199.07 184.3"><defs><style>.cls-1,.cls-3,.cls-5{stroke:#000;}.cls-1{fill:url(#linear-gradient);}.cls-2{fill:url(#linear-gradient-2);}.cls-3{fill:url(#linear-gradient-3);}.cls-4{fill:url(#linear-gradient-4);}.cls-5{fill:url(#linear-gradient-5);}</style><linearGradient id="linear-gradient" x1="247.51" y1="140.61" x2="247.51" y2="140.61" gradientUnits="userSpaceOnUse"><stop offset="0" stop-color="#7f3cff"/><stop offset="0.29" stop-color="#7645ff"/><stop offset="0.78" stop-color="#5e5fff"/><stop offset="0.99" stop-color="#516cff"/></linearGradient><linearGradient id="linear-gradient-2" x1="102.99" y1="134.64" x2="193.13" y2="134.64" xlink:href="#linear-gradient"/><linearGradient id="linear-gradient-3" x1="48.76" y1="131.31" x2="48.76" y2="131.31" xlink:href="#linear-gradient"/><linearGradient id="linear-gradient-4" x1="45.92" y1="170.29" x2="244.99" y2="170.29" xlink:href="#linear-gradient"/><linearGradient id="linear-gradient-5" x1="155.28" y1="249.2" x2="155.28" y2="249.2" xlink:href="#linear-gradient"/></defs><title>logo</title><path class="cls-1" d="M247.51,140.61" transform="translate(-45.92 -63.6)"/><path class="cls-2" d="M179,104.34a15.24,15.24,0,0,0-2.14,0q-6.75.44-16.21,9.35l-14.07,13.25a5.84,5.84,0,0,0-.24,8.25l14.27,15.15a5.84,5.84,0,0,0,8.25.24L183,137.23q9.32-8.78,10-15.68t-4.54-12.47l0,0A14.22,14.22,0,0,0,179,104.34ZM130.7,63.61q-6,.26-14.2,8l-11.68,11a5.84,5.84,0,0,0-.25,8.24l12.86,13.64a5.84,5.84,0,0,0,8.25.24l11.44-10.78q8.43-8,9-14t-4.61-11.52Q136.7,63.37,130.7,63.61Zm30.41,141.62-.48.45" transform="translate(-45.92 -63.6)"/><path class="cls-3" d="M48.76,131.31" transform="translate(-45.92 -63.6)"/><path class="cls-4" d="M243.72,148.05a43.84,43.84,0,0,1-1.59,7.71q-2.07,6.9-10.09,16.73-10.69,13.06-14.66,16.81l-62.17,58.59-109.29-116L47,94.34A1.7,1.7,0,0,1,50,93.22L156.89,206.67l.66-.83,61.77-58.22q4-3.75,14.66-16.81a83,83,0,0,0,5.28-7.13,37.12,37.12,0,0,0,4.81-9.6c.36-1.2.67-2.42.92-3.63" transform="translate(-45.92 -63.6)"/><path class="cls-5" d="M155.28,249.2" transform="translate(-45.92 -63.6)"/></svg>